<?xml version="1.0" encoding="UTF-8" standalone="no"?>
<svg
   xmlns:dc="http://purl.org/dc/elements/1.1/"
   xmlns:cc="http://creativecommons.org/ns#"
   xmlns:rdf="http://www.w3.org/1999/02/22-rdf-syntax-ns#"
   xmlns:svg="http://www.w3.org/2000/svg"
   xmlns="http://www.w3.org/2000/svg"
   xmlns:sodipodi="http://sodipodi.sourceforge.net/DTD/sodipodi-0.dtd"
   xmlns:inkscape="http://www.inkscape.org/namespaces/inkscape"
   version="1.1"
   width="595.27557"
   height="841.88977"
   id="svg4769"
   viewBox="0 0 595.27557 841.88977"
   sodipodi:docname="л-логотип.svg"
   inkscape:version="1.0.2-2 (e86c870879, 2021-01-15)"
   inkscape:export-filename="R:\Beauty\Logo\л.png"
   inkscape:export-xdpi="297.48999"
   inkscape:export-ydpi="297.48999">
  <metadata
     id="metadata4775">
    <rdf:RDF>
      <cc:Work
         rdf:about="">
        <dc:format>image/svg+xml</dc:format>
        <dc:type
           rdf:resource="http://purl.org/dc/dcmitype/StillImage" />
        <dc:title />
      </cc:Work>
    </rdf:RDF>
  </metadata>
  <defs
     id="defs4773" />
  <sodipodi:namedview
     pagecolor="#ffffff"
     bordercolor="#666666"
     borderopacity="1"
     objecttolerance="10"
     gridtolerance="10"
     guidetolerance="10"
     inkscape:pageopacity="0"
     inkscape:pageshadow="2"
     inkscape:window-width="2560"
     inkscape:window-height="1336"
     id="namedview4771"
     showgrid="false"
     inkscape:zoom="3.0971469"
     inkscape:cx="201.76561"
     inkscape:cy="246.08031"
     inkscape:window-x="-8"
     inkscape:window-y="-8"
     inkscape:window-maximized="1"
     inkscape:current-layer="layer1"
     inkscape:document-rotation="0" />
  <g
     inkscape:groupmode="layer"
     id="layer2"
     inkscape:label="Layer 2"
     style="display:none">
    <path
       style="fill:#84756f;fill-opacity:1;fill-rule:evenodd;stroke-width:1"
       d="m 165.37729,320.06042 c -0.4099,0.24552 -0.57362,0.0819 -0.49182,-0.49182 0.61575,-2.25414 6.89659,-11.524 8.48271,-13.95356 12.23259,-18.72774 26.27887,-37.35562 39.71029,-55.26178 19.49462,-26.20954 40.29952,-52.32714 61.90027,-76.83745 3.64701,-4.14049 7.95033,-8.8935 12.04781,-12.60125 0.85982,-0.7779 1.41393,-1.12718 1.65945,-1.04527 1.29625,0.6454 -2.50433,14.99727 -2.95012,16.84295 -9.91615,40.3783 -17.37701,63.89639 -7.85137,105.31294 0.16372,0.57362 0.10053,0.83865 -0.18478,0.79897 -0.28597,-0.0406 -1.01952,0.18155 -1.38038,-0.24084 -27.21114,-31.8645 -0.22212,-89.89631 5.48187,-109.31302 -0.65553,1.22916 -1.35308,2.37729 -2.08975,3.44195 -18.24284,26.36468 -37.06331,51.38876 -56.92113,76.59204 -12.65586,15.8991 -25.66557,31.49962 -38.84902,46.96296 -5.29242,5.64481 -12.81323,15.9576 -18.56403,19.79318 z"
       id="path846" />
  </g>
  <g
     inkscape:groupmode="layer"
     id="layer1"
     inkscape:label="Layer 1"
     style="display:inline">
    <g
       id="g1498">
      <path
         id="path4751"
         style="fill:#84756f;fill-opacity:1;fill-rule:evenodd;stroke-width:1"
         d="m 165.37729,320.06042 c -0.4099,0.24552 -0.57362,0.0819 -0.49182,-0.49182 0.61575,-2.25414 6.89659,-11.524 8.48271,-13.95356 12.23259,-18.72774 26.27887,-37.35562 39.71029,-55.26178 19.49462,-26.20954 40.29952,-52.32714 61.90027,-76.83745 3.64701,-4.14049 7.95033,-8.8935 12.04781,-12.60125 0.85982,-0.7779 1.41393,-1.12718 1.65945,-1.04527 1.29625,0.6454 -2.50433,14.99727 -2.95012,16.84295 -9.91615,40.3783 -17.37701,63.89639 -7.85137,105.31294 0.16372,0.57362 0.10053,0.83865 -0.18478,0.79897 -0.28597,-0.0406 -1.01952,0.18155 -1.38038,-0.24084 -27.21114,-31.8645 -0.22212,-89.89631 5.48187,-109.31302 -0.65553,1.22916 -1.35308,2.37729 -2.08975,3.44195 -18.24284,26.36468 -37.06331,51.38876 -56.92113,76.59204 -12.65586,15.8991 -25.66557,31.49962 -38.84902,46.96296 -5.29242,5.64481 -12.81323,15.9576 -18.56403,19.79318 z M 315.9763,240.01425 a 82.611313,82.611313 0 0 1 -82.61131,82.61131 82.611313,82.611313 0 0 1 -82.61131,-82.61131 82.611313,82.611313 0 0 1 82.61131,-82.61131 82.611313,82.611313 0 0 1 82.61131,82.61131 z" />
      <path
         id="path886"
         style="fill:#ffffff;fill-opacity:1;fill-rule:evenodd;stroke:none;stroke-width:1"
         d="m 277.78711,170.36328 c -0.96694,1.07143 -1.90863,2.13061 -2.80859,3.15234 -21.60075,24.51032 -42.40578,50.62836 -61.9004,76.8379 -12.16226,16.21418 -24.81418,33.02101 -36.18164,49.95703 a 82.611313,82.611313 0 0 0 3.94141,3.46484 c 1.08642,-1.26902 2.14056,-2.48073 3.10352,-3.50781 13.18345,-15.46334 26.19375,-31.06379 38.84961,-46.96289 19.85782,-25.20328 38.67708,-50.22712 56.91992,-76.5918 0.73667,-1.06466 1.43431,-2.2142 2.08984,-3.44336 -5.70399,19.41671 -32.69161,77.44995 -5.48047,109.31445 0.36086,0.42239 1.09294,0.19964 1.37891,0.24024 0.28531,0.0397 0.34927,-0.22521 0.18555,-0.79883 -9.52564,-41.41655 -2.06459,-64.9342 7.85156,-105.3125 0.0163,-0.0676 0.0962,-0.38652 0.12109,-0.48633 a 82.611313,82.611313 0 0 0 -8.07031,-5.86328 z" />
    </g>
  </g>
</svg>
