<svg width="75" height="26" viewBox="0 0 75 26" fill="none" xmlns="http://www.w3.org/2000/svg">
<path d="M0 6.4C0 4.15979 0 3.03969 0.435974 2.18404C0.819467 1.43139 1.43139 0.819467 2.18404 0.435974C3.03969 0 4.15979 0 6.4 0H69.9542C71.9152 0 72.8957 0 73.4324 0.408307C73.8998 0.763951 74.1873 1.30709 74.2186 1.89362C74.2544 2.567 73.7031 3.3778 72.6004 4.99939L69.8555 9.03604C69.0033 10.2893 68.5771 10.916 68.4037 11.5968C68.2504 12.1985 68.2393 12.8277 68.3713 13.4345C68.5206 14.121 68.9244 14.7623 69.7319 16.0448L72.9117 21.095C73.9191 22.695 74.4228 23.4951 74.3713 24.1556C74.3263 24.7314 74.0347 25.2596 73.5714 25.6044C73.0399 26 72.0945 26 70.2037 26H6.4C4.15979 26 3.03969 26 2.18404 25.564C1.43139 25.1805 0.819467 24.5686 0.435974 23.816C0 22.9603 0 21.8402 0 19.6V6.4Z" fill="#D54C64"/>
</svg>
