<svg width="76" height="76" viewBox="0 0 76 76" fill="none" xmlns="http://www.w3.org/2000/svg">
<path d="M70.6562 27.3125H62.1253C61.8805 26.6203 61.4279 26.0206 60.8293 25.5955C60.2307 25.1704 59.5154 24.9405 58.7812 24.9375H57.5938C57.5938 23.9927 57.2184 23.0865 56.5503 22.4184C55.8822 21.7503 54.9761 21.375 54.0312 21.375C53.0864 21.375 52.1803 21.7503 51.5122 22.4184C50.8441 23.0865 50.4688 23.9927 50.4688 24.9375H49.2812C48.5471 24.9405 47.8317 25.1704 47.2332 25.5955C46.6346 26.0206 46.182 26.6203 45.9372 27.3125H37.4062C36.4614 27.3125 35.5553 27.6878 34.8872 28.3559C34.2191 29.024 33.8438 29.9302 33.8438 30.875V71.25C33.8438 72.1948 34.2191 73.101 34.8872 73.7691C35.5553 74.4372 36.4614 74.8125 37.4062 74.8125H70.6562C71.6011 74.8125 72.5072 74.4372 73.1753 73.7691C73.8434 73.101 74.2188 72.1948 74.2188 71.25V30.875C74.2188 29.9302 73.8434 29.024 73.1753 28.3559C72.5072 27.6878 71.6011 27.3125 70.6562 27.3125ZM49.2812 27.3125H51.6562C51.9712 27.3125 52.2732 27.1874 52.4959 26.9647C52.7186 26.742 52.8438 26.4399 52.8438 26.125V24.9375C52.8438 24.6226 52.9689 24.3205 53.1916 24.0978C53.4143 23.8751 53.7163 23.75 54.0312 23.75C54.3462 23.75 54.6482 23.8751 54.8709 24.0978C55.0936 24.3205 55.2188 24.6226 55.2188 24.9375V26.125C55.2188 26.4399 55.3439 26.742 55.5666 26.9647C55.7893 27.1874 56.0913 27.3125 56.4062 27.3125H58.7812C59.0962 27.3125 59.3982 27.4376 59.6209 27.6603C59.8436 27.883 59.9688 28.1851 59.9688 28.5C59.9688 28.8149 59.8436 29.117 59.6209 29.3397C59.3982 29.5624 59.0962 29.6875 58.7812 29.6875H49.2812C48.9663 29.6875 48.6643 29.5624 48.4416 29.3397C48.2189 29.117 48.0938 28.8149 48.0938 28.5C48.0938 28.1851 48.2189 27.883 48.4416 27.6603C48.6643 27.4376 48.9663 27.3125 49.2812 27.3125ZM49.875 39.7812C49.5601 39.7812 49.258 39.6561 49.0353 39.4334C48.8126 39.2107 48.6875 38.9087 48.6875 38.5938C48.6875 38.2788 48.8126 37.9768 49.0353 37.7541C49.258 37.5314 49.5601 37.4062 49.875 37.4062H52.8438V34.4375C52.8438 34.1226 52.9689 33.8205 53.1916 33.5978C53.4143 33.3751 53.7163 33.25 54.0312 33.25C54.3462 33.25 54.6482 33.3751 54.8709 33.5978C55.0936 33.8205 55.2188 34.1226 55.2188 34.4375V37.4062H58.1875C58.5024 37.4062 58.8045 37.5314 59.0272 37.7541C59.2499 37.9768 59.375 38.2788 59.375 38.5938C59.375 38.9087 59.2499 39.2107 59.0272 39.4334C58.8045 39.6561 58.5024 39.7812 58.1875 39.7812H55.2188V42.75C55.2188 43.0649 55.0936 43.367 54.8709 43.5897C54.6482 43.8124 54.3462 43.9375 54.0312 43.9375C53.7163 43.9375 53.4143 43.8124 53.1916 43.5897C52.9689 43.367 52.8438 43.0649 52.8438 42.75V39.7812H49.875ZM54.0312 65.3125H39.7812C39.4663 65.3125 39.1643 65.1874 38.9416 64.9647C38.7189 64.742 38.5938 64.4399 38.5938 64.125C38.5938 63.8101 38.7189 63.508 38.9416 63.2853C39.1643 63.0626 39.4663 62.9375 39.7812 62.9375H54.0312C54.3462 62.9375 54.6482 63.0626 54.8709 63.2853C55.0936 63.508 55.2188 63.8101 55.2188 64.125C55.2188 64.4399 55.0936 64.742 54.8709 64.9647C54.6482 65.1874 54.3462 65.3125 54.0312 65.3125ZM68.2812 58.1875H39.7812C39.4663 58.1875 39.1643 58.0624 38.9416 57.8397C38.7189 57.617 38.5938 57.3149 38.5938 57C38.5938 56.6851 38.7189 56.383 38.9416 56.1603C39.1643 55.9376 39.4663 55.8125 39.7812 55.8125H68.2812C68.5962 55.8125 68.8982 55.9376 69.1209 56.1603C69.3436 56.383 69.4688 56.6851 69.4688 57C69.4688 57.3149 69.3436 57.617 69.1209 57.8397C68.8982 58.0624 68.5962 58.1875 68.2812 58.1875ZM68.2812 51.0625H39.7812C39.4663 51.0625 39.1643 50.9374 38.9416 50.7147C38.7189 50.492 38.5938 50.1899 38.5938 49.875C38.5938 49.5601 38.7189 49.258 38.9416 49.0353C39.1643 48.8126 39.4663 48.6875 39.7812 48.6875H68.2812C68.5962 48.6875 68.8982 48.8126 69.1209 49.0353C69.3436 49.258 69.4688 49.5601 69.4688 49.875C69.4688 50.1899 69.3436 50.492 69.1209 50.7147C68.8982 50.9374 68.5962 51.0625 68.2812 51.0625Z" fill="#C4A2FC"/>
<path d="M26.9944 9.5H28.1819V10.6875C28.1819 11.0024 28.307 11.3045 28.5297 11.5272C28.7524 11.7499 29.0544 11.875 29.3694 11.875C29.6843 11.875 29.9864 11.7499 30.2091 11.5272C30.4318 11.3045 30.5569 11.0024 30.5569 10.6875V9.5H31.7444C32.0593 9.5 32.3614 9.37489 32.5841 9.15219C32.8068 8.92949 32.9319 8.62744 32.9319 8.3125C32.9319 7.99756 32.8068 7.69551 32.5841 7.47281C32.3614 7.25011 32.0593 7.125 31.7444 7.125H30.5569V5.9375C30.5569 5.62256 30.4318 5.32051 30.2091 5.09781C29.9864 4.87511 29.6843 4.75 29.3694 4.75C29.0544 4.75 28.7524 4.87511 28.5297 5.09781C28.307 5.32051 28.1819 5.62256 28.1819 5.9375V7.125H26.9944C26.6794 7.125 26.3774 7.25011 26.1547 7.47281C25.932 7.69551 25.8069 7.99756 25.8069 8.3125C25.8069 8.62744 25.932 8.92949 26.1547 9.15219C26.3774 9.37489 26.6794 9.5 26.9944 9.5Z" fill="#151A6A"/>
<path d="M56.5749 52.5397L53.8341 45.2307C53.1608 43.4349 52.0167 41.8534 50.5218 40.652C49.0268 39.4506 47.2362 38.6736 45.3376 38.4026L35.1809 36.9514L35.0016 35.568C38.1728 35.2972 41.1928 34.0935 43.681 32.1088C44.4218 31.5192 44.9547 30.7083 45.2021 29.7944C45.4495 28.8805 45.3983 27.9115 45.0561 27.0287L40.1007 14.1443L41.2716 8.28875C41.4437 7.42748 41.4226 6.53875 41.2099 5.68661C40.9971 4.83446 40.5979 4.04014 40.0411 3.36089C39.4843 2.68163 38.7837 2.13437 37.9899 1.75854C37.1961 1.38271 36.3287 1.18768 35.4504 1.1875H23.2881C22.41 1.18803 21.5429 1.38332 20.7494 1.7593C19.9558 2.13528 19.2556 2.68259 18.699 3.3618C18.1425 4.04101 17.7435 4.83521 17.5309 5.68718C17.3182 6.53915 17.2972 7.42768 17.4693 8.28875L18.639 14.1443L13.6847 27.0287C13.3422 27.9117 13.291 28.8811 13.5386 29.7953C13.7862 30.7095 14.3197 31.5206 15.0611 32.11C17.5487 34.0944 20.5686 35.2973 23.7393 35.5668L23.56 36.9514L13.4033 38.4026C11.5047 38.6736 9.71404 39.4506 8.2191 40.652C6.72416 41.8534 5.58005 43.4349 4.90674 45.2307L2.16362 52.5397C1.82679 53.4377 1.7125 54.404 1.83054 55.3557C1.94858 56.3075 2.29542 57.2166 2.8414 58.0051C3.38737 58.7936 4.11624 59.4381 4.96563 59.8835C5.81502 60.3288 6.75966 60.5618 7.71874 60.5625H51.015C51.9745 60.5626 52.9197 60.3302 53.7697 59.8851C54.6197 59.4401 55.3492 58.7956 55.8957 58.007C56.4423 57.2184 56.7895 56.3091 56.9078 55.3569C57.0261 54.4048 56.9118 53.4381 56.5749 52.5397ZM37.8967 15.4375C38.1504 16.5617 38.2582 17.714 38.2173 18.8658C37.3364 18.6713 36.5202 18.2539 35.8467 17.6536C35.1733 17.0534 34.6652 16.2903 34.371 15.4375H37.8967ZM20.843 15.4375H30.4166C29.4061 16.5536 28.1741 17.4469 26.7991 18.0603C25.4241 18.6737 23.9363 18.9937 22.4307 19H20.5307C20.4863 17.8041 20.5912 16.6074 20.843 15.4375ZM22.4307 21.375C24.3154 21.3673 26.1766 20.9565 27.8895 20.1702C29.6024 19.3839 31.1272 18.2403 32.3617 16.8162C32.8666 17.952 33.6395 18.9484 34.6141 19.7198C35.5887 20.4913 36.7359 21.0149 37.9572 21.2456C37.5749 23.1973 36.7891 25.0477 35.6501 26.6782C34.5111 28.3086 33.044 29.683 31.3429 30.7135C30.7578 31.0654 30.0873 31.2497 29.4046 31.2464C28.7219 31.243 28.0532 31.0521 27.4716 30.6945C25.782 29.6833 24.3201 28.3333 23.1778 26.7293C22.0356 25.1254 21.2378 23.3024 20.8347 21.375H22.4307ZM26.4812 32.8534C27.3613 33.3496 28.3528 33.6146 29.3631 33.6238C30.3734 33.6329 31.3695 33.3858 32.2584 32.9056L32.8783 37.6829C32.4542 38.2053 31.9189 38.6264 31.3115 38.9156C30.704 39.2049 30.0397 39.355 29.3669 39.355C28.6941 39.355 28.0297 39.2049 27.4223 38.9156C26.8148 38.6264 26.2795 38.2053 25.8554 37.6829L26.4812 32.8534ZM42.1942 30.2551C40.0455 31.9674 37.4323 32.9954 34.6928 33.2061L34.4553 31.4058C37.5523 28.8775 39.6386 25.3214 40.3346 21.3845L42.8343 27.8813C42.9945 28.2933 43.019 28.7457 42.9043 29.1727C42.7896 29.5996 42.5417 29.9788 42.1966 30.2551H42.1942ZM23.2881 3.5625H35.4504C35.9774 3.56264 36.4978 3.67969 36.974 3.9052C37.4503 4.13071 37.8706 4.45908 38.2047 4.86662C38.5387 5.27417 38.7782 5.75075 38.9059 6.26202C39.0335 6.77329 39.0462 7.30651 38.9429 7.82325L37.8955 13.0625H20.843L19.7944 7.82325C19.6911 7.30641 19.7038 6.77309 19.8315 6.26173C19.9592 5.75038 20.1988 5.27373 20.533 4.86616C20.8672 4.4586 21.2877 4.13026 21.7641 3.90482C22.2405 3.67938 22.761 3.56247 23.2881 3.5625ZM16.5419 30.2563C16.1958 29.9805 15.9468 29.6014 15.831 29.1742C15.7153 28.7471 15.7388 28.2942 15.8982 27.8813L18.4122 21.3501C19.1134 25.2757 21.1964 28.8208 24.2844 31.3441L24.0469 33.2096C21.306 32.9987 18.6915 31.9699 16.5419 30.2563ZM51.015 58.1875H7.71874C7.14407 58.1858 6.57834 58.045 6.06984 57.7773C5.56134 57.5095 5.12516 57.1227 4.79851 56.6499C4.47187 56.1771 4.26445 55.6323 4.19397 55.0619C4.12349 54.4916 4.19203 53.9127 4.39374 53.3746L7.12499 46.0655C7.64854 44.6686 8.53835 43.4384 9.70109 42.5038C10.8638 41.5692 12.2566 40.9647 13.7334 40.7538L24.0956 39.2742C24.7421 40.0425 25.5488 40.6602 26.4591 41.084C27.3695 41.5078 28.3615 41.7273 29.3657 41.7273C30.3698 41.7273 31.3619 41.5078 32.2722 41.084C33.1826 40.6602 33.9893 40.0425 34.6358 39.2742L45.0062 40.7538C46.4828 40.9649 47.8754 41.5695 49.0379 42.5041C50.2004 43.4386 51.09 44.6688 51.6135 46.0655L54.3554 53.3746C54.5576 53.9139 54.626 54.4942 54.5547 55.0658C54.4835 55.6373 54.2747 56.1831 53.9463 56.6563C53.6178 57.1294 53.1796 57.5159 52.6691 57.7826C52.1585 58.0493 51.591 58.1882 51.015 58.1875Z" fill="#151A6A"/>
<path d="M23.4319 46.3125H16.3069C15.677 46.3125 15.0729 46.5627 14.6275 47.0081C14.1821 47.4535 13.9319 48.0576 13.9319 48.6875V52.25C13.9319 52.8799 14.1821 53.484 14.6275 53.9294C15.0729 54.3748 15.677 54.625 16.3069 54.625H23.4319C24.0618 54.625 24.6659 54.3748 25.1113 53.9294C25.5567 53.484 25.8069 52.8799 25.8069 52.25V48.6875C25.8069 48.0576 25.5567 47.4535 25.1113 47.0081C24.6659 46.5627 24.0618 46.3125 23.4319 46.3125ZM16.3069 52.25V48.6875H23.4319V52.25H16.3069Z" fill="#151A6A"/>
</svg>
