<svg width="76" height="76" viewBox="0 0 76 76" fill="none" xmlns="http://www.w3.org/2000/svg">
<path d="M61.75 28.6544V27.3125C61.75 23.8481 60.3738 20.5256 57.9241 18.0759C55.4744 15.6262 52.1519 14.25 48.6875 14.25C45.2231 14.25 41.9006 15.6262 39.4509 18.0759C37.0012 20.5256 35.625 23.8481 35.625 27.3125V28.6544C30.9992 31.4989 27.4283 35.7756 25.4549 40.8348C23.4815 45.894 23.2134 51.4591 24.6915 56.6845C26.1696 61.9099 29.3129 66.5101 33.644 69.786C37.975 73.0619 43.2571 74.8345 48.6875 74.8345C54.1179 74.8345 59.4 73.0619 63.731 69.786C68.0621 66.5101 71.2055 61.9099 72.6835 56.6845C74.1616 51.4591 73.8935 45.894 71.9201 40.8348C69.9467 35.7756 66.3758 31.4989 61.75 28.6544ZM48.6875 20.1875C50.4842 20.1974 52.2111 20.8845 53.5234 22.1117C54.8358 23.3389 55.6371 25.0158 55.7674 26.8078C55.7808 26.9956 55.7494 27.1839 55.6758 27.3571C55.6021 27.5304 55.4884 27.6836 55.3438 27.8042C55.1993 27.9249 55.0282 28.0094 54.8446 28.0509C54.6609 28.0924 54.4701 28.0896 54.2878 28.0428C50.6171 27.0738 46.7579 27.0738 43.0873 28.0428C42.9049 28.0896 42.7141 28.0924 42.5304 28.0509C42.3468 28.0094 42.1757 27.9249 42.0312 27.8042C41.8866 27.6836 41.7729 27.5304 41.6992 27.3571C41.6256 27.1839 41.5942 26.9956 41.6076 26.8078C41.7379 25.0158 42.5392 23.3389 43.8516 22.1117C45.1639 20.8845 46.8908 20.1974 48.6875 20.1875ZM33.3866 39.8383C33.5296 39.5576 33.7782 39.3453 34.0777 39.248C34.3772 39.1507 34.7031 39.1763 34.9838 39.3193C39.2302 41.4751 43.9252 42.5986 48.6875 42.5986C53.4498 42.5986 58.1449 41.4751 62.3913 39.3193C62.5302 39.2482 62.6819 39.2052 62.8375 39.1927C62.9931 39.1803 63.1497 39.1986 63.2982 39.2467C63.4467 39.2949 63.5843 39.3718 63.703 39.4731C63.8218 39.5745 63.9194 39.6982 63.9903 39.8373C64.0612 39.9764 64.1039 40.1281 64.1161 40.2838C64.1283 40.4394 64.1096 40.5959 64.0613 40.7444C64.0129 40.8928 63.9357 41.0302 63.8342 41.1488C63.7327 41.2674 63.6087 41.3648 63.4695 41.4354C58.8883 43.7615 53.823 44.9738 48.6851 44.9738C43.5473 44.9738 38.4819 43.7615 33.9008 41.4354C33.621 41.2916 33.4097 41.0427 33.3133 40.7432C33.2169 40.4438 33.2432 40.1183 33.3866 39.8383ZM63.4695 60.4354C58.8883 62.7615 53.823 63.9738 48.6851 63.9738C43.5473 63.9738 38.4819 62.7615 33.9008 60.4354C33.6207 60.2921 33.409 60.0436 33.312 59.7443C33.2151 59.445 33.2408 59.1195 33.3836 58.8392C33.5265 58.5589 33.7747 58.3467 34.0738 58.2492C34.3729 58.1518 34.6985 58.177 34.979 58.3193C39.2254 60.4751 43.9205 61.5986 48.6828 61.5986C53.445 61.5986 58.1401 60.4751 62.3865 58.3193C62.5255 58.2482 62.6771 58.2052 62.8327 58.1927C62.9884 58.1803 63.1449 58.1986 63.2934 58.2467C63.4419 58.2948 63.5795 58.3718 63.6983 58.4731C63.817 58.5745 63.9146 58.6982 63.9855 58.8373C64.0564 58.9764 64.0992 59.1281 64.1113 59.2838C64.1235 59.4394 64.1049 59.5959 64.0565 59.7444C64.0082 59.8928 63.931 60.0302 63.8295 60.1488C63.7279 60.2674 63.604 60.3648 63.4648 60.4354H63.4695ZM67.032 50.9354C61.3468 53.8215 55.0609 55.3256 48.6851 55.3256C42.3093 55.3256 36.0235 53.8215 30.3383 50.9354C30.0582 50.7921 29.8465 50.5436 29.7495 50.2443C29.6526 49.945 29.6783 49.6195 29.8211 49.3392C29.964 49.0589 30.2122 48.8467 30.5113 48.7492C30.8104 48.6518 31.136 48.677 31.4165 48.8193C36.7672 51.5342 42.6827 52.9491 48.6828 52.9491C54.6828 52.9491 60.5983 51.5342 65.949 48.8193C66.088 48.7482 66.2396 48.7052 66.3952 48.6927C66.5509 48.6803 66.7074 48.6986 66.8559 48.7467C67.0044 48.7948 67.142 48.8718 67.2608 48.9731C67.3795 49.0745 67.4771 49.1982 67.548 49.3373C67.6189 49.4764 67.6617 49.6281 67.6738 49.7838C67.686 49.9394 67.6674 50.0959 67.619 50.2444C67.5707 50.3928 67.4935 50.5302 67.392 50.6488C67.2904 50.7674 67.1665 50.8648 67.0273 50.9354H67.032Z" fill="#C4A2FC"/>
<path d="M51.0625 32.0626C50.7476 32.0626 50.4455 32.1877 50.2228 32.4104C50.0001 32.6331 49.875 32.9351 49.875 33.2501V39.1876C49.8725 39.9521 49.6236 40.6954 49.1651 41.3072C48.7067 41.919 48.0632 42.3667 47.3302 42.5838C47.0744 41.5 46.5194 40.5098 45.7283 39.726C44.9372 38.9423 43.9419 38.3965 42.8557 38.1509L44.5906 20.2196C44.8238 17.8103 44.5506 15.3788 43.7884 13.0813C43.0261 10.7838 41.7919 8.6711 40.1648 6.87891C38.5377 5.08671 36.5537 3.65463 34.3404 2.67462C32.127 1.69461 29.7331 1.18835 27.3125 1.18835C24.8919 1.18835 22.498 1.69461 20.2846 2.67462C18.0713 3.65463 16.0873 5.08671 14.4602 6.87891C12.8331 8.6711 11.5988 10.7838 10.8366 13.0813C10.0744 15.3788 9.80116 17.8103 10.0344 20.2196L11.7693 38.1509C10.6831 38.3965 9.68781 38.9423 8.89671 39.726C8.10561 40.5098 7.55057 41.5 7.29481 42.5838C6.56178 42.3667 5.91829 41.919 5.45986 41.3072C5.00143 40.6954 4.7525 39.9521 4.75 39.1876V33.2501C4.75 32.9351 4.62489 32.6331 4.40219 32.4104C4.17949 32.1877 3.87744 32.0626 3.5625 32.0626C3.24756 32.0626 2.94551 32.1877 2.72281 32.4104C2.50011 32.6331 2.375 32.9351 2.375 33.2501V39.1876C2.37746 40.5734 2.86462 41.9148 3.75209 42.9792C4.63956 44.0437 5.87142 44.7641 7.23425 45.0158C7.48592 46.3787 8.20639 47.6105 9.27083 48.498C10.3353 49.3854 11.6766 49.8726 13.0625 49.8751H21.375V52.2501H16.625C14.7359 52.252 12.9247 53.0032 11.5889 54.339C10.2532 55.6748 9.50189 57.486 9.5 59.3751C9.5 59.69 9.62511 59.9921 9.84781 60.2148C10.0705 60.4375 10.3726 60.5626 10.6875 60.5626H43.9375C44.2524 60.5626 44.5545 60.4375 44.7772 60.2148C44.9999 59.9921 45.125 59.69 45.125 59.3751C45.1231 57.486 44.3718 55.6748 43.0361 54.339C41.7003 53.0032 39.8891 52.252 38 52.2501H33.25V49.8751H41.5625C42.9484 49.8726 44.2897 49.3854 45.3542 48.498C46.4186 47.6105 47.1391 46.3787 47.3908 45.0158C48.7536 44.7641 49.9854 44.0437 50.8729 42.9792C51.7604 41.9148 52.2475 40.5734 52.25 39.1876V33.2501C52.25 32.9351 52.1249 32.6331 51.9022 32.4104C51.6795 32.1877 51.3774 32.0626 51.0625 32.0626ZM27.3125 3.56257C29.4016 3.56409 31.4672 4.00211 33.3771 4.84856C35.287 5.69501 36.999 6.9312 38.4032 8.47789C39.8075 10.0246 40.873 11.8476 41.5316 13.8302C42.1902 15.8127 42.4272 17.911 42.2275 19.9904L40.4842 38.0001H14.1407L12.3975 19.9904C12.1976 17.9109 12.4345 15.8126 13.093 13.83C13.7515 11.8473 14.8171 10.0242 16.2214 8.4775C17.6256 6.93077 19.3377 5.69458 21.2476 4.8482C23.1576 4.00181 25.2234 3.56391 27.3125 3.56257ZM38 54.6251C39.0528 54.6264 40.0755 54.9768 40.908 55.6215C41.7404 56.2661 42.3356 57.1686 42.6004 58.1876H12.0246C12.2894 57.1686 12.8846 56.2661 13.717 55.6215C14.5495 54.9768 15.5722 54.6264 16.625 54.6251H38ZM23.75 52.2501V49.8751H30.875V52.2501H23.75ZM41.5625 47.5001H13.0625C12.1177 47.5001 11.2115 47.1247 10.5434 46.4566C9.87533 45.7885 9.5 44.8824 9.5 43.9376C9.5 42.9927 9.87533 42.0866 10.5434 41.4185C11.2115 40.7504 12.1177 40.3751 13.0625 40.3751H41.5625C42.5073 40.3751 43.4135 40.7504 44.0816 41.4185C44.7497 42.0866 45.125 42.9927 45.125 43.9376C45.125 44.8824 44.7497 45.7885 44.0816 46.4566C43.4135 47.1247 42.5073 47.5001 41.5625 47.5001Z" fill="#151A6A"/>
</svg>
