<svg width="76" height="76" viewBox="0 0 76 76" fill="none" xmlns="http://www.w3.org/2000/svg">
<path d="M36.1687 45.9895L43.6001 38.5581L23.3045 18.2614C23.1942 18.151 23.0633 18.0634 22.9191 18.0036C22.7749 17.9438 22.6204 17.9131 22.4644 17.9131C22.3083 17.9131 22.1538 17.9438 22.0096 18.0036C21.8654 18.0634 21.7345 18.151 21.6242 18.2614C20.4939 19.3927 19.818 20.8994 19.7245 22.4958C19.6311 24.0923 20.1266 25.6675 21.1171 26.923L36.1687 45.9895Z" fill="#C4A2FC"/>
<path d="M71.1667 53.5289C69.2625 51.6399 66.8025 50.4116 64.1484 50.0245C61.4943 49.6374 58.7859 50.112 56.4215 51.3784L54.7091 49.6672L50.2631 55.3672L51.3746 56.4359C50.2785 58.4713 49.7697 60.7712 49.9052 63.079C50.0407 65.3868 50.8151 67.6114 52.1419 69.5045C53.4687 71.3976 55.2956 72.8845 57.4187 73.7993C59.5417 74.714 61.8773 75.0206 64.1645 74.6846C66.4517 74.3487 68.6005 73.3835 70.3708 71.8969C72.1412 70.4103 73.4634 68.4608 74.1898 66.2662C74.9162 64.0715 75.0181 61.7182 74.4843 59.4689C73.9505 57.2196 72.8018 55.1631 71.1667 53.5289ZM66.9677 66.9631C66.0543 67.8766 64.8906 68.4986 63.6236 68.7507C62.3567 69.0027 61.0434 68.8734 59.85 68.379C58.6565 67.8847 57.6365 67.0476 56.9188 65.9735C56.2011 64.8995 55.8181 63.6367 55.8181 62.3449C55.8181 61.0532 56.2011 59.7904 56.9188 58.7163C57.6365 57.6423 58.6565 56.8051 59.85 56.3108C61.0434 55.8165 62.3567 55.6872 63.6236 55.9392C64.8906 56.1912 66.0543 56.8133 66.9677 57.7267C68.1925 58.9516 68.8806 60.6128 68.8806 62.3449C68.8806 64.0771 68.1925 65.7383 66.9677 66.9631Z" fill="#C4A2FC"/>
<path d="M68.9355 18.2613C68.7128 18.0387 68.4108 17.9136 68.0959 17.9136C67.781 17.9136 67.479 18.0387 67.2564 18.2613L34.1405 51.3783C31.5043 49.9526 28.4427 49.5241 25.5164 50.1713C22.59 50.8185 19.9947 52.4981 18.2056 54.9026C16.4165 57.3071 15.5533 60.2755 15.7741 63.2645C15.9949 66.2534 17.2849 69.0628 19.408 71.1783C21.531 73.2937 24.3449 74.5737 27.3346 74.7839C30.3243 74.9941 33.2897 74.1203 35.6878 72.3227C38.0859 70.525 39.7563 67.9238 40.3931 64.9951C41.0298 62.0665 40.5905 59.0065 39.1554 56.3753L41.87 53.3793L47.146 54.4338C47.362 54.4771 47.5858 54.4595 47.7924 54.383C47.9989 54.3064 48.1801 54.174 48.3157 54.0003L69.4437 26.9253C70.4348 25.6695 70.9305 24.0937 70.8368 22.4967C70.7431 20.8997 70.0666 19.3926 68.9355 18.2613ZM32.8284 66.9631C31.915 67.8765 30.7512 68.4986 29.4842 68.7506C28.2173 69.0027 26.9041 68.8733 25.7106 68.379C24.5172 67.8847 23.4971 67.0475 22.7794 65.9735C22.0618 64.8994 21.6787 63.6367 21.6787 62.3449C21.6787 61.0531 22.0618 59.7904 22.7794 58.7163C23.4971 57.6422 24.5172 56.8051 25.7106 56.3108C26.9041 55.8164 28.2173 55.6871 29.4842 55.9392C30.7512 56.1912 31.915 56.8133 32.8284 57.7267C34.0531 58.9515 34.7412 60.6127 34.7412 62.3449C34.7412 64.077 34.0531 65.7382 32.8284 66.9631Z" fill="#C4A2FC"/>
<path d="M58.5439 55.8743C57.7322 53.4113 56.1993 51.2489 54.1439 49.6674C52.0886 48.086 49.6056 47.1584 47.0168 47.0048L37.0858 46.385V45.7318C41.6591 44.9727 46.1081 43.5961 50.311 41.6397C51.0636 41.2913 51.6519 40.6648 51.9524 39.8918C52.2529 39.1188 52.2421 38.2594 51.9224 37.4942C49.605 31.8297 48.4158 25.7673 48.4217 19.6472C48.4217 14.7511 46.4767 10.0555 43.0146 6.59341C39.5525 3.13132 34.8569 1.18634 29.9608 1.18634C25.0647 1.18634 20.3691 3.13132 16.907 6.59341C13.4449 10.0555 11.4999 14.7511 11.4999 19.6472C11.5051 25.7676 10.3147 31.8301 7.9956 37.4942C7.67605 38.2597 7.66565 39.1193 7.96659 39.8923C8.26753 40.6654 8.85638 41.2917 9.60942 41.6397C13.8116 43.5966 18.2604 44.9733 22.8334 45.7318V46.385L12.9012 47.0048C10.3128 47.1592 7.83038 48.087 5.77525 49.6681C3.72011 51.2492 2.18691 53.4108 1.3741 55.8731C1.19562 56.4083 1.14682 56.9783 1.23173 57.5361C1.31664 58.0939 1.53282 58.6236 1.86247 59.0815C2.19213 59.5394 2.62584 59.9124 3.12788 60.1699C3.62992 60.4274 4.18594 60.562 4.75017 60.5625H55.1595C55.7243 60.5632 56.2812 60.4296 56.7842 60.1728C57.2872 59.9159 57.7219 59.5431 58.0525 59.0852C58.383 58.6273 58.6 58.0973 58.6855 57.539C58.7709 56.9807 58.7224 56.4101 58.5439 55.8743ZM18.0834 22.5625H20.6864C23.2659 22.5678 25.8107 21.968 28.1164 20.8114C30.4221 19.6549 32.4245 17.9737 33.9627 15.903C34.5152 17.6332 35.5497 19.17 36.9449 20.3329C38.34 21.4958 40.0379 22.2368 41.8394 22.4687V23.5375C41.844 27.239 40.7549 30.8595 38.7087 33.9441C36.6625 37.0287 33.7505 39.4399 30.3384 40.875C30.1004 40.9735 29.833 40.9735 29.595 40.875C26.1823 39.4404 23.2694 37.0294 21.2224 33.9448C19.1754 30.8602 18.0854 27.2395 18.0894 23.5375L18.0834 22.5625ZM25.2084 41.1992C26.3025 41.9281 27.4617 42.5542 28.6712 43.0695C29.4973 43.4097 30.4243 43.4097 31.2504 43.0695C32.4578 42.5558 33.6153 41.9321 34.7084 41.2063V48.1793C33.3927 49.3283 31.7052 49.9614 29.9584 49.9614C28.2117 49.9614 26.5241 49.3283 25.2084 48.1793V41.1992ZM10.6022 39.4832C10.4087 39.3867 10.2592 39.2203 10.1838 39.0177C10.1084 38.8151 10.1128 38.5914 10.196 38.3919C12.6317 32.4429 13.8822 26.0755 13.8773 19.6472C13.8773 15.381 15.572 11.2895 18.5887 8.27278C21.6054 5.2561 25.6969 3.56134 29.9632 3.56134C34.2294 3.56134 38.3209 5.2561 41.3376 8.27278C44.3543 11.2895 46.049 15.381 46.049 19.6472C46.0447 26.0758 47.2952 32.4435 49.7303 38.3931C49.8144 38.592 49.8193 38.8155 49.7441 39.018C49.6688 39.2204 49.519 39.3864 49.3254 39.482C45.4342 41.2936 41.3219 42.5864 37.0941 43.3272V39.3787C39.3362 37.3935 41.1309 34.9544 42.3592 32.2232C43.5876 29.492 44.2215 26.531 44.2191 23.5363V21.375C44.2191 21.0601 44.094 20.758 43.8713 20.5353C43.6486 20.3126 43.3465 20.1875 43.0316 20.1875C36.53 20.1875 35.9375 13.6385 35.4102 12.7858C35.3351 12.5664 35.1974 12.3738 35.0141 12.2317C34.8307 12.0896 34.6098 12.0044 34.3785 11.9864C34.1473 11.9685 33.9158 12.0187 33.7128 12.1308C33.5097 12.2429 33.344 12.412 33.2359 12.6172C32.0362 14.9059 30.2319 16.8217 28.0193 18.1565C25.8067 19.4912 23.2704 20.1937 20.6864 20.1875H16.8959C16.581 20.1875 16.2789 20.3126 16.0562 20.5353C15.8335 20.758 15.7084 21.0601 15.7084 21.375V23.5363C15.7062 26.5308 16.3402 29.4916 17.5685 32.2226C18.7969 34.9536 20.5915 37.3924 22.8334 39.3775V43.3272C18.6054 42.5864 14.4928 41.294 10.601 39.4832H10.6022ZM55.1631 58.1875H4.75017C4.56201 58.1876 4.37653 58.1429 4.20901 58.0572C4.0415 57.9715 3.89675 57.8472 3.7867 57.6946C3.67664 57.542 3.60443 57.3654 3.57601 57.1794C3.54758 56.9934 3.56377 56.8033 3.62323 56.6248C4.28842 54.6129 5.5421 52.847 7.22203 51.5556C8.90196 50.2642 10.9308 49.5066 13.046 49.381L22.8453 48.7683C22.8596 49.0548 22.9778 49.3262 23.1778 49.5318C24.9764 51.3269 27.4137 52.335 29.9549 52.335C32.496 52.335 34.9333 51.3269 36.7319 49.5318C36.9319 49.3262 37.0501 49.0548 37.0644 48.7683L46.8625 49.381C48.9783 49.5061 51.0079 50.2635 52.6883 51.5553C54.3687 52.847 55.6227 54.6135 56.2877 56.626C56.3468 56.8042 56.3629 56.994 56.3345 57.1796C56.306 57.3653 56.234 57.5416 56.1242 57.694C56.0145 57.8464 55.8701 57.9706 55.7031 58.0564C55.536 58.1422 55.3509 58.1871 55.1631 58.1875Z" fill="#151A6A"/>
</svg>
