<svg width="76" height="76" viewBox="0 0 76 76" fill="none" xmlns="http://www.w3.org/2000/svg">
<path d="M49.875 24.9375C44.9428 24.9375 40.1214 26.4001 36.0205 29.1402C31.9195 31.8804 28.7232 35.7751 26.8358 40.3318C24.9483 44.8886 24.4545 49.9027 25.4167 54.7401C26.3789 59.5775 28.754 64.0209 32.2415 67.5085C35.7291 70.996 40.1725 73.3711 45.0099 74.3333C49.8473 75.2956 54.8614 74.8017 59.4182 72.9142C63.9749 71.0268 67.8696 67.8305 70.6098 63.7295C73.3499 59.6286 74.8125 54.8072 74.8125 49.875C74.805 43.2635 72.1752 36.9249 67.5002 32.2499C62.8251 27.5748 56.4865 24.945 49.875 24.9375ZM65.3125 54.625C65.3125 54.9399 65.1874 55.242 64.9647 55.4647C64.742 55.6874 64.44 55.8125 64.125 55.8125H55.8125V64.125C55.8125 64.4399 55.6874 64.742 55.4647 64.9647C55.242 65.1874 54.94 65.3125 54.625 65.3125H45.125C44.8101 65.3125 44.508 65.1874 44.2853 64.9647C44.0626 64.742 43.9375 64.4399 43.9375 64.125V55.8125H35.625C35.3101 55.8125 35.008 55.6874 34.7853 55.4647C34.5626 55.242 34.4375 54.9399 34.4375 54.625V45.125C34.4375 44.8101 34.5626 44.508 34.7853 44.2853C35.008 44.0626 35.3101 43.9375 35.625 43.9375H43.9375V35.625C43.9375 35.3101 44.0626 35.008 44.2853 34.7853C44.508 34.5626 44.8101 34.4375 45.125 34.4375H54.625C54.94 34.4375 55.242 34.5626 55.4647 34.7853C55.6874 35.008 55.8125 35.3101 55.8125 35.625V43.9375H64.125C64.44 43.9375 64.742 44.0626 64.9647 44.2853C65.1874 44.508 65.3125 44.8101 65.3125 45.125V54.625Z" fill="#C4A2FC"/>
<path d="M53.4375 45.125V36.8125H46.3125V45.125C46.3125 45.4399 46.1874 45.742 45.9647 45.9647C45.742 46.1874 45.4399 46.3125 45.125 46.3125H36.8125V53.4375H45.125C45.4399 53.4375 45.742 53.5626 45.9647 53.7853C46.1874 54.008 46.3125 54.3101 46.3125 54.625V62.9375H53.4375V54.625C53.4375 54.3101 53.5626 54.008 53.7853 53.7853C54.008 53.5626 54.3101 53.4375 54.625 53.4375H62.9375V46.3125H54.625C54.3101 46.3125 54.008 46.1874 53.7853 45.9647C53.5626 45.742 53.4375 45.4399 53.4375 45.125Z" fill="#C4A2FC"/>
<path d="M60.3132 13.9519L48.5569 2.19567C47.8781 1.54792 46.9759 1.18652 46.0377 1.18652C45.0994 1.18652 44.1972 1.54792 43.5184 2.19567C42.8505 2.86374 42.4753 3.76971 42.4753 4.71436C42.4753 5.65901 42.8505 6.56498 43.5184 7.23305L46.0394 9.75292L43.5196 12.2728L38.481 7.23542C37.8021 6.58829 36.9002 6.22729 35.9623 6.22729C35.0244 6.22729 34.1225 6.58829 33.4436 7.23542C32.9207 7.75343 32.5732 8.4223 32.4501 9.148C32.327 9.8737 32.4344 10.6197 32.7572 11.2812L14.9697 29.0676C13.1154 30.9278 11.8645 33.3033 11.3799 35.8847C10.8952 38.4661 11.1994 41.1336 12.2527 43.5397L10.7695 45.0205C10.1016 45.6886 9.72644 46.5945 9.72644 47.5392C9.72644 48.4838 10.1016 49.3898 10.7695 50.0579L1.53549 59.2954C1.31918 59.5194 1.19949 59.8194 1.20219 60.1307C1.2049 60.4421 1.32979 60.7399 1.54996 60.9601C1.77013 61.1803 2.06797 61.3051 2.37933 61.3078C2.69069 61.3106 2.99065 61.1909 3.21462 60.9746L12.451 51.7382C12.7818 52.069 13.1746 52.3315 13.6068 52.5106C14.0391 52.6897 14.5024 52.7818 14.9703 52.7818C15.4382 52.7818 15.9015 52.6897 16.3337 52.5106C16.766 52.3315 17.1587 52.069 17.4896 51.7382L18.9704 50.2562C21.3755 51.3141 24.0442 51.6207 26.6266 51.1359C29.209 50.6511 31.5847 49.3974 33.4424 47.5392L51.2288 29.7528C51.8904 30.0749 52.6361 30.182 53.3616 30.0592C54.0871 29.9363 54.756 29.5896 55.2746 29.0676C55.6057 28.7368 55.8683 28.3439 56.0475 27.9116C56.2266 27.4792 56.3189 27.0158 56.3189 26.5477C56.3189 26.0797 56.2266 25.6163 56.0475 25.1839C55.8683 24.7515 55.6057 24.3587 55.2746 24.0279L50.2372 18.9905L52.7559 16.4706L55.2746 18.9893C55.6044 19.3246 55.9973 19.5912 56.4306 19.7739C56.864 19.9566 57.3292 20.0516 57.7995 20.0536C58.2698 20.0556 58.7358 19.9644 59.1706 19.7854C59.6055 19.6063 60.0006 19.343 60.3332 19.0105C60.6658 18.678 60.9292 18.2829 61.1083 17.8481C61.2875 17.4133 61.3787 16.9473 61.3769 16.477C61.375 16.0068 61.2801 15.5415 61.0975 15.1081C60.9149 14.6747 60.6484 14.2818 60.3132 13.9519ZM15.8092 50.0579C15.5866 50.2805 15.2846 50.4055 14.9697 50.4055C14.6548 50.4055 14.3528 50.2805 14.1301 50.0579L12.4498 48.3787C12.2272 48.1561 12.1021 47.8541 12.1021 47.5392C12.1021 47.2243 12.2272 46.9223 12.4498 46.6996L13.4509 45.6997C14.3463 47.0231 15.4866 48.163 16.8103 49.058L15.8092 50.0579ZM31.7633 45.8601C29.751 47.8245 27.0455 48.9167 24.2333 48.8997C21.4211 48.8828 18.7289 47.7582 16.7404 45.7696C14.7519 43.7811 13.6272 41.0889 13.6103 38.2768C13.5934 35.4646 14.6855 32.7591 16.65 30.7467L20.0082 34.1062C20.2322 34.3225 20.5322 34.4422 20.8435 34.4395C21.1549 34.4368 21.4527 34.3119 21.6729 34.0917C21.8931 33.8715 22.018 33.5737 22.0207 33.2623C22.0234 32.951 21.9037 32.651 21.6874 32.427L18.3291 29.0676L23.3677 24.0291L26.7259 27.3885C26.8363 27.4987 26.9672 27.5862 27.1114 27.6458C27.2555 27.7055 27.4099 27.7361 27.5659 27.7361C27.7219 27.736 27.8763 27.7052 28.0204 27.6455C28.1645 27.5858 28.2954 27.4982 28.4056 27.3879C28.5159 27.2776 28.6033 27.1466 28.663 27.0025C28.7226 26.8583 28.7533 26.7039 28.7532 26.5479C28.7532 26.3919 28.7224 26.2375 28.6627 26.0934C28.6029 25.9493 28.5154 25.8184 28.4051 25.7082L25.0468 22.3487L30.0842 17.3114L33.4436 20.6696C33.6676 20.8859 33.9675 21.0056 34.2789 21.0029C34.5903 21.0002 34.8881 20.8753 35.1083 20.6551C35.3284 20.435 35.4533 20.1371 35.456 19.8258C35.4587 19.5144 35.3391 19.2145 35.1227 18.9905L31.7645 15.6322L34.2832 13.1124L49.4001 28.2269L31.7633 45.8601ZM53.5943 27.3873C53.3682 27.6028 53.0677 27.7231 52.7553 27.7231C52.4429 27.7231 52.1425 27.6028 51.9164 27.3873L35.1227 10.5937C34.9064 10.3697 34.7867 10.0697 34.7894 9.75839C34.7921 9.44703 34.917 9.14919 35.1372 8.92902C35.3574 8.70884 35.6552 8.58395 35.9666 8.58125C36.2779 8.57854 36.5779 8.69824 36.8019 8.91455L53.5955 25.707C53.7058 25.8174 53.7933 25.9484 53.853 26.0926C53.9126 26.2368 53.9433 26.3913 53.9432 26.5474C53.9431 26.7034 53.9122 26.858 53.8523 27.0021C53.7925 27.1462 53.7048 27.2771 53.5943 27.3873ZM48.5581 17.3114L45.1987 13.9519L47.7186 11.4332L51.0768 14.7915L48.5581 17.3114ZM58.6341 17.3114C58.4083 17.5277 58.1078 17.6485 57.7951 17.6485C57.4824 17.6485 57.1818 17.5277 56.9561 17.3114L45.1999 5.55511C44.9837 5.331 44.8642 5.03094 44.8671 4.71958C44.8701 4.40822 44.9952 4.11047 45.2155 3.89045C45.4358 3.67043 45.7338 3.54575 46.0451 3.54327C46.3565 3.54079 46.6564 3.6607 46.8802 3.87717L58.6364 15.6334C58.858 15.8563 58.9822 16.158 58.9817 16.4723C58.9813 16.7866 58.8563 17.0879 58.6341 17.3102V17.3114Z" fill="#151A6A"/>
</svg>
