<svg width="76" height="76" viewBox="0 0 76 76" fill="none" xmlns="http://www.w3.org/2000/svg">
<path d="M70.3689 18.7268L67.2814 19.4975L68.5496 17.4681C68.6471 17.3123 68.707 17.1361 68.7248 16.9532C68.7426 16.7704 68.7177 16.5859 68.6521 16.4142C68.5865 16.2426 68.482 16.0886 68.3467 15.9642C68.2115 15.8398 68.0493 15.7486 67.8728 15.6975C55.7226 12.1879 42.8279 12.1838 30.6755 15.6856C30.499 15.7367 30.3368 15.828 30.2015 15.9523C30.0663 16.0767 29.9618 16.2308 29.8962 16.4024C29.8306 16.574 29.8057 16.7585 29.8234 16.9413C29.8412 17.1242 29.9012 17.3004 29.9986 17.4562L31.274 19.4987L28.1865 18.7268C28.0114 18.683 27.8286 18.6796 27.652 18.717C27.4754 18.7544 27.3097 18.8315 27.1674 18.9426C27.0251 19.0536 26.91 19.1956 26.8308 19.3579C26.7516 19.5201 26.7105 19.6982 26.7104 19.8787V52.25C26.7168 53.9923 26.9244 55.728 27.3291 57.4227C27.3651 57.576 27.4311 57.7205 27.5234 57.848C27.6157 57.9755 27.7324 58.0834 27.8668 58.1654C28.0011 58.2474 28.1505 58.3019 28.3061 58.3256C28.4617 58.3494 28.6204 58.342 28.7731 58.3038L31.2669 57.6792L29.1294 61.1028C29.0219 61.2749 28.9604 61.4717 28.9506 61.6744C28.9408 61.8771 28.9832 62.0789 29.0736 62.2606C30.9337 66.0299 33.8113 69.2036 37.381 71.4227C40.9508 73.6419 45.0702 74.8179 49.2735 74.8179C53.4768 74.8179 57.5963 73.6419 61.166 71.4227C64.7358 69.2036 67.6134 66.0299 69.4735 62.2606C69.5637 62.0788 69.6059 61.8769 69.5959 61.6742C69.5859 61.4716 69.5242 61.2748 69.4165 61.1028L67.279 57.6792L69.7728 58.3038C69.9254 58.3418 70.084 58.3491 70.2395 58.3252C70.395 58.3014 70.5442 58.2469 70.6784 58.1649C70.8126 58.0829 70.9292 57.9751 71.0215 57.8477C71.1137 57.7203 71.1797 57.5758 71.2156 57.4227C71.6231 55.7283 71.8339 53.9926 71.8438 52.25V19.8787C71.8437 19.6983 71.8026 19.5203 71.7235 19.3582C71.6444 19.1961 71.5294 19.0542 71.3872 18.9431C71.245 18.8321 71.0795 18.7549 70.903 18.7175C70.7266 18.68 70.5439 18.6832 70.3689 18.7268ZM46.9063 51.0625H51.6563C51.9712 51.0625 52.2733 51.1876 52.496 51.4103C52.7187 51.633 52.8438 51.935 52.8438 52.25C52.8438 52.5649 52.7187 52.8669 52.496 53.0896C52.2733 53.3123 51.9712 53.4375 51.6563 53.4375H46.9063C46.5913 53.4375 46.2893 53.3123 46.0666 53.0896C45.8439 52.8669 45.7188 52.5649 45.7188 52.25C45.7188 51.935 45.8439 51.633 46.0666 51.4103C46.2893 51.1876 46.5913 51.0625 46.9063 51.0625ZM31.4688 34.4375C31.4688 33.0283 31.8866 31.6507 32.6695 30.479C33.4524 29.3073 34.5652 28.3941 35.8671 27.8548C37.1691 27.3155 38.6017 27.1744 39.9838 27.4494C41.3659 27.7243 42.6355 28.4029 43.6319 29.3993C44.6283 30.3958 45.3069 31.6653 45.5819 33.0474C45.8568 34.4296 45.7157 35.8622 45.1764 37.1641C44.6371 38.466 43.7239 39.5788 42.5522 40.3617C41.3805 41.1446 40.003 41.5625 38.5938 41.5625C36.7033 41.5603 34.8911 40.8077 33.5551 39.4702C32.2192 38.1327 31.4688 36.3196 31.4688 34.4291V34.4375ZM54.0313 65.3125H44.5313C43.5864 65.3125 42.6803 64.9371 42.0122 64.269C41.3441 63.6009 40.9688 62.6948 40.9688 61.75C40.9688 60.8051 41.3441 59.899 42.0122 59.2309C42.6803 58.5628 43.5864 58.1875 44.5313 58.1875H54.0313C54.9761 58.1875 55.8822 58.5628 56.5503 59.2309C57.2184 59.899 57.5938 60.8051 57.5938 61.75C57.5938 62.6948 57.2184 63.6009 56.5503 64.269C55.8822 64.9371 54.9761 65.3125 54.0313 65.3125ZM59.9688 41.5625C58.5596 41.5625 57.182 41.1446 56.0103 40.3617C54.8386 39.5788 53.9254 38.466 53.3861 37.1641C52.8468 35.8622 52.7057 34.4296 52.9807 33.0474C53.2556 31.6653 53.9342 30.3958 54.9306 29.3993C55.9271 28.4029 57.1966 27.7243 58.5787 27.4494C59.9609 27.1744 61.3935 27.3155 62.6954 27.8548C63.9973 28.3941 65.1101 29.3073 65.893 30.479C66.6759 31.6507 67.0938 33.0283 67.0938 34.4375C67.0897 36.3252 66.3375 38.1344 65.002 39.4686C63.6664 40.8027 61.8565 41.5531 59.9688 41.5553V41.5625Z" fill="#C4A2FC"/>
<path d="M25.2504 38.3752C25.2806 38.3752 25.3113 38.374 25.3421 38.3717L28.2778 38.1479C28.4379 38.1357 28.5938 38.0911 28.7361 38.017C28.8784 37.9428 29.0043 37.8406 29.106 37.7164C29.2077 37.5923 29.2832 37.4488 29.3279 37.2946C29.3727 37.1405 29.3857 36.9789 29.3662 36.8195L28.4118 29.0329C28.3928 28.8781 28.3435 28.7285 28.2668 28.5927C28.19 28.457 28.0873 28.3377 27.9644 28.2416C27.8415 28.1455 27.7009 28.0746 27.5506 28.0329C27.4004 27.9912 27.2433 27.9795 27.0885 27.9984C26.9337 28.0174 26.7842 28.0667 26.6484 28.1434C26.5126 28.2202 26.3933 28.3229 26.2973 28.4458C26.1033 28.694 26.0158 29.009 26.0541 29.3217L26.8572 35.8744L25.1611 36.0036C24.855 36.027 24.5698 36.168 24.3654 36.3971C24.161 36.6262 24.0533 36.9255 24.0648 37.2323C24.0764 37.5392 24.2063 37.8296 24.4273 38.0426C24.6484 38.2557 24.9434 38.3749 25.2504 38.3752Z" fill="#151A6A"/>
<path d="M52.1673 32.6748L47.5844 9.75745C47.1694 7.68275 46.2193 5.75256 44.8283 4.15827C43.4373 2.56398 41.6537 1.36096 39.6544 0.668503C37.6552 -0.0239591 35.5096 -0.181814 33.4305 0.21059C31.3514 0.602994 29.411 1.53203 27.8016 2.90557L26.3167 4.17358L25.7676 3.62508C24.184 2.04135 22.2002 0.917128 20.0278 0.372285C17.8555 -0.172557 15.576 -0.117585 13.4324 0.53134C11.2889 1.18026 9.3616 2.39881 7.85618 4.05703C6.35076 5.71525 5.32362 7.75096 4.8843 9.94709L0.338192 32.6742C-0.498047 36.9108 0.228633 41.307 2.38376 45.0492C4.5389 48.7914 7.97659 51.6262 12.0607 53.0292L15.3609 54.1532V56.4068C15.3609 56.7218 15.486 57.0238 15.7087 57.2465C15.9314 57.4692 16.2335 57.5943 16.5484 57.5943H35.9575C36.2724 57.5943 36.5745 57.4692 36.7972 57.2465C37.0199 57.0238 37.145 56.7218 37.145 56.4068V54.1534L40.4451 53.0292C44.5294 51.6267 47.9673 48.792 50.1225 45.0498C52.2776 41.3076 53.0041 36.9114 52.1673 32.6748ZM34.7705 55.2193H17.7357L17.7365 49.0918C19.4559 50.4059 21.3515 51.4719 23.3676 52.2583L24.3916 52.6549C25.6742 53.1525 27.0965 53.1525 28.3791 52.6549L29.4055 52.2577C31.3181 51.5112 33.1225 50.5128 34.7709 49.289L34.7705 55.2193ZM28.5484 50.0431L27.5221 50.4404C26.791 50.7242 25.9801 50.724 25.2492 50.4398L24.2246 50.0431C20.2751 48.4945 16.8815 45.7955 14.4837 42.2958C12.0859 38.796 10.7944 34.6569 10.7763 30.4146L10.775 28.0169C13.29 27.6091 15.6627 26.5776 17.6765 25.0166C19.6902 23.4557 21.2807 21.4151 22.3028 19.0812C22.4739 18.6903 22.7416 18.3493 23.0809 18.0904C23.4201 17.8315 23.8196 17.6632 24.2418 17.6013C24.664 17.5394 25.0951 17.586 25.4943 17.7367C25.8936 17.8874 26.2479 18.1371 26.524 18.4625L27.2813 19.3554C27.3963 19.4911 27.5404 19.5992 27.7029 19.6717C27.8654 19.7442 28.042 19.7793 28.2199 19.7743C28.3977 19.7694 28.5722 19.7245 28.7304 19.6431C28.8885 19.5617 29.0264 19.4457 29.1338 19.3039L29.4188 18.927C29.7582 18.479 30.2029 18.1218 30.7136 17.887C31.2242 17.6522 31.7849 17.5471 32.3459 17.581C32.9068 17.6149 33.4508 17.7867 33.9294 18.0813C34.4081 18.3759 34.8065 18.7841 35.0896 19.2697C35.8107 20.4972 36.813 21.5359 38.014 22.3003C39.215 23.0648 40.5803 23.5332 41.9977 23.6669V30.415C41.9796 34.6573 40.6879 38.7965 38.2899 42.2962C35.8919 45.7959 32.4982 48.4948 28.5484 50.0431ZM39.6801 50.7807L37.1456 51.644L37.1462 47.2867C39.4192 45.1018 41.2301 42.4825 42.4715 39.5843C43.7128 36.6861 44.3594 33.568 44.3727 30.4152V23.7233H44.6591C44.9741 23.7233 45.2761 23.5982 45.4988 23.3755C45.7215 23.1528 45.8466 22.8507 45.8466 22.5358C45.8466 22.2208 45.7215 21.9188 45.4988 21.6961C45.2761 21.4734 44.9741 21.3483 44.6591 21.3483H42.8407C41.6879 21.3461 40.5557 21.0428 39.5562 20.4684C38.5567 19.8941 37.7245 19.0686 37.1421 18.0737C36.7045 17.3225 36.1032 16.6795 35.3829 16.1925C34.6626 15.7055 33.8419 15.3871 32.9816 15.2608C32.1214 15.1346 31.2438 15.2038 30.4139 15.4633C29.5841 15.7229 28.8234 16.166 28.1884 16.7599C27.6362 16.1659 26.9449 15.7187 26.1768 15.4583C25.4088 15.198 24.588 15.1328 23.7884 15.2686C22.9889 15.4043 22.2357 15.7369 21.5966 16.2362C20.9575 16.7355 20.4527 17.3859 20.1275 18.1288C19.1242 20.4224 17.474 22.3738 15.379 23.7442C13.2839 25.1146 10.8348 25.8445 8.33137 25.8447H7.84782H7.84663C7.69069 25.8447 7.53626 25.8753 7.39215 25.9349C7.24805 25.9945 7.1171 26.0819 7.00677 26.1921C6.89645 26.3024 6.80891 26.4332 6.74916 26.5773C6.68941 26.7213 6.65862 26.8757 6.65854 27.0317C6.65846 27.1876 6.6891 27.342 6.74871 27.4861C6.80831 27.6302 6.89572 27.7612 7.00593 27.8715C7.22852 28.0943 7.5305 28.2196 7.84545 28.2197H8.33019C8.35394 28.2197 8.37685 28.2171 8.40037 28.2171L8.40155 30.4156C8.41496 33.5075 9.03761 36.5664 10.2339 39.4175C11.4302 42.2686 13.1767 44.856 15.3736 47.0318C15.3725 47.0521 15.3617 47.0693 15.3617 47.0898V51.6438L12.8267 50.7805C9.28721 49.5646 6.30798 47.1078 4.44027 43.8647C2.57255 40.6216 1.94277 36.8118 2.66747 33.1402L7.21287 10.4132C7.56778 8.63848 8.39774 6.99339 9.61422 5.65335C10.8307 4.3133 12.3881 3.32857 14.1203 2.80416C15.8525 2.27975 17.6946 2.23533 19.45 2.67564C21.2055 3.11595 22.8085 4.02447 24.0882 5.30432L25.4131 6.62922C25.6246 6.83998 25.9077 6.96353 26.2061 6.97534C26.5045 6.98715 26.7964 6.88637 27.0239 6.69298L29.3438 4.71235C30.6382 3.60743 32.199 2.86007 33.8713 2.54438C35.5437 2.22869 37.2695 2.35563 38.8776 2.91263C40.4857 3.46963 41.9203 4.43733 43.0391 5.71977C44.1579 7.00221 44.9221 8.55483 45.2557 10.2237L49.8388 33.141C50.5636 36.8125 49.9339 40.6222 48.0663 43.8653C46.1986 47.1083 43.2194 49.565 39.6801 50.7807Z" fill="#151A6A"/>
<path d="M32.0912 41.9159C32.0483 41.8512 31.9995 41.7908 31.9452 41.7355C31.9024 41.6695 31.8528 41.6082 31.7972 41.5526L31.7936 41.5506L31.791 41.5474L30.8712 40.7959C30.2529 40.2908 29.5281 39.9322 28.7514 39.7471C27.9746 39.562 27.166 39.5552 26.3863 39.7272C25.6066 39.5559 24.7982 39.563 24.0217 39.7481C23.2451 39.9332 22.5204 40.2914 21.9018 40.7959L20.9816 41.5468L20.9782 41.551L20.9752 41.5526C20.9333 41.5966 20.8951 41.6439 20.8608 41.694C20.7924 41.7607 20.7321 41.8353 20.6812 41.9162C20.656 41.979 20.6363 42.0439 20.6225 42.1101C20.5486 42.2479 20.53 42.4087 20.5705 42.5597C20.5696 42.642 20.5776 42.7241 20.5942 42.8047C20.6204 42.8663 20.6517 42.9257 20.6877 42.9821C20.7197 43.0653 20.7614 43.1444 20.8119 43.2178L20.8162 43.2214L20.8177 43.2242C21.5199 43.997 22.3814 44.6082 23.3427 45.0157C24.304 45.4232 25.3423 45.6174 26.3859 45.5847C27.4295 45.6174 28.4678 45.4232 29.4291 45.0157C30.3904 44.6082 31.2518 43.997 31.954 43.2242L31.9561 43.2203L31.9592 43.2178C32.0014 43.1545 32.037 43.0871 32.0655 43.0167C32.1098 42.9498 32.1473 42.8787 32.1776 42.8045C32.1924 42.7302 32.1998 42.6546 32.1998 42.5788C32.2426 42.4312 32.2274 42.2728 32.1573 42.136C32.1426 42.0606 32.1204 41.9869 32.0912 41.9159ZM26.3863 43.2102C25.4198 43.2201 24.468 42.9733 23.6281 42.4951C23.9788 42.2543 24.3781 42.0935 24.7978 42.0241C25.2175 41.9547 25.6473 41.9784 26.0569 42.0935C26.2721 42.1549 26.5003 42.1549 26.7156 42.0935C27.1252 41.9783 27.5551 41.9545 27.975 42.0239C28.3948 42.0932 28.7943 42.2539 29.1451 42.4948C28.305 42.9731 27.353 43.2198 26.3863 43.2097V43.2102Z" fill="#151A6A"/>
</svg>
