<svg width="57" height="26" viewBox="0 0 57 26" fill="none" xmlns="http://www.w3.org/2000/svg">
<path d="M0 6.4C0 4.15979 0 3.03969 0.435974 2.18404C0.819467 1.43139 1.43139 0.819467 2.18404 0.435974C3.03969 0 4.15979 0 6.4 0H51.9542C53.9152 0 54.8957 0 55.4324 0.408307C55.8998 0.763951 56.1873 1.30709 56.2186 1.89362C56.2544 2.567 55.7031 3.3778 54.6004 4.99939L51.8555 9.03604C51.0033 10.2893 50.5771 10.916 50.4037 11.5968C50.2504 12.1985 50.2393 12.8277 50.3713 13.4345C50.5206 14.121 50.9244 14.7623 51.7319 16.0448L54.9117 21.095C55.9191 22.695 56.4228 23.4951 56.3713 24.1556C56.3263 24.7314 56.0347 25.2596 55.5714 25.6044C55.0399 26 54.0945 26 52.2037 26H6.4C4.15979 26 3.03969 26 2.18404 25.564C1.43139 25.1805 0.819467 24.5686 0.435974 23.816C0 22.9603 0 21.8402 0 19.6V6.4Z" fill="#D54C64"/>
</svg>
