<svg width="76" height="76" viewBox="0 0 76 76" fill="none" xmlns="http://www.w3.org/2000/svg">
<path d="M51.0625 67.6875H43.9375C43.6226 67.6875 43.3205 67.8126 43.0978 68.0353C42.8751 68.258 42.75 68.5601 42.75 68.875V74.8125H52.25V68.875C52.25 68.5601 52.1249 68.258 51.9022 68.0353C51.6795 67.8126 51.3774 67.6875 51.0625 67.6875Z" fill="#C4A2FC"/>
<path d="M71.2725 58.1875H64.9455C67.3302 55.8716 69.223 53.0982 70.5103 50.0334C71.7976 46.9685 72.4531 43.6754 72.4374 40.3512C72.4342 33.7374 69.8039 27.3957 65.125 22.7212C60.4461 18.0468 54.1019 15.4225 47.488 15.4256C40.8742 15.4288 34.5325 18.0591 29.858 22.738C25.1836 27.4169 22.5592 33.7611 22.5624 40.375C22.5404 46.1606 24.5502 51.7703 28.241 56.2257C28.3892 56.398 28.4848 56.6092 28.5165 56.8342C28.5482 57.0593 28.5147 57.2887 28.4199 57.4952C28.3252 57.7017 28.1731 57.8768 27.9819 57.9995C27.7906 58.1222 27.5681 58.1874 27.3409 58.1875H23.719C23.0774 58.1929 22.4492 58.3716 21.9007 58.7045C21.3522 59.0375 20.9038 59.5124 20.6029 60.0791C20.3019 60.6458 20.1597 61.2832 20.191 61.9241C20.2224 62.565 20.4263 63.1855 20.7811 63.72L27.0393 73.22C27.3604 73.7084 27.7976 74.1095 28.3118 74.3874C28.8259 74.6653 29.401 74.8114 29.9855 74.8125H40.3749V68.875C40.3749 67.9301 40.7502 67.024 41.4183 66.3559C42.0864 65.6878 42.9926 65.3125 43.9374 65.3125H51.0624C52.0072 65.3125 52.9134 65.6878 53.5815 66.3559C54.2496 67.024 54.6249 67.9301 54.6249 68.875V74.8125H65.0179C65.6005 74.8125 66.1741 74.6679 66.687 74.3916C67.2 74.1153 67.6364 73.716 67.957 73.2295L74.2186 63.72C74.5739 63.1849 74.7778 62.5636 74.8088 61.922C74.8399 61.2804 74.6968 60.6424 74.3949 60.0754C74.093 59.5085 73.6434 59.0337 73.0938 58.7013C72.5441 58.369 71.9148 58.1914 71.2725 58.1875ZM47.4999 24.9375C50.5531 24.9375 53.5378 25.8429 56.0765 27.5392C58.6152 29.2355 60.5939 31.6465 61.7623 34.4673C62.9307 37.2881 63.2364 40.3921 62.6408 43.3867C62.0451 46.3813 60.5748 49.132 58.4159 51.2909C56.2569 53.4499 53.5062 54.9202 50.5116 55.5159C47.517 56.1115 44.4131 55.8058 41.5922 54.6374C38.7714 53.4689 36.3604 51.4903 34.6641 48.9516C32.9678 46.4129 32.0624 43.4282 32.0624 40.375C32.0674 36.2822 33.6955 32.3586 36.5895 29.4646C39.4835 26.5706 43.4072 24.9425 47.4999 24.9375Z" fill="#C4A2FC"/>
<path d="M44.7687 41.2146L48.3312 37.6521C48.5475 37.4281 48.6672 37.1281 48.6645 36.8168C48.6618 36.5054 48.5369 36.2076 48.3167 35.9874C48.0966 35.7672 47.7987 35.6423 47.4874 35.6396C47.176 35.6369 46.876 35.7566 46.6521 35.9729L43.0896 39.5354C42.9762 39.645 42.8857 39.776 42.8235 39.9209C42.7612 40.0658 42.7285 40.2216 42.7271 40.3793C42.7257 40.5369 42.7558 40.6933 42.8155 40.8392C42.8752 40.9852 42.9634 41.1178 43.0749 41.2293C43.1864 41.3408 43.3189 41.4289 43.4649 41.4887C43.6108 41.5484 43.7672 41.5784 43.9249 41.577C44.0825 41.5757 44.2384 41.5429 44.3832 41.4807C44.5281 41.4184 44.6592 41.328 44.7687 41.2146Z" fill="#C4A2FC"/>
<path d="M44.2805 48.3395C44.3908 48.4499 44.5218 48.5375 44.666 48.5973C44.8101 48.657 44.9646 48.6878 45.1207 48.6878C45.2768 48.6878 45.4313 48.657 45.5754 48.5973C45.7196 48.5375 45.8506 48.4499 45.9609 48.3395L56.6484 37.652C56.7586 37.5417 56.8461 37.4107 56.9057 37.2666C56.9653 37.1225 56.996 36.968 56.9959 36.812C56.9959 36.656 56.9651 36.5016 56.9054 36.3575C56.8456 36.2134 56.7581 36.0825 56.6478 35.9723C56.5374 35.862 56.4065 35.7746 56.2623 35.7149C56.1182 35.6553 55.9638 35.6246 55.8078 35.6247C55.6518 35.6248 55.4974 35.6555 55.3533 35.7153C55.2092 35.775 55.0783 35.8625 54.968 35.9729L44.2805 46.6604C44.0579 46.8831 43.9329 47.1851 43.9329 47.4999C43.9329 47.8148 44.0579 48.1168 44.2805 48.3395Z" fill="#C4A2FC"/>
<path d="M26.125 34.4375V28.5C26.122 27.7658 25.8921 27.0505 25.467 26.4519C25.0419 25.8533 24.4422 25.4007 23.75 25.156V3.55415C23.7135 3.17072 23.5848 2.8018 23.3749 2.47882C23.1651 2.15585 22.8802 1.88841 22.5447 1.69928C20.2754 0.379966 15.3924 1.79903 11.9463 3.80947C10.4963 4.65615 7.125 6.88747 7.125 9.30997V25.1512C6.43203 25.3962 5.83181 25.8496 5.40661 26.4491C4.98142 27.0486 4.75207 27.765 4.75 28.5V34.4375C3.80517 34.4375 2.89903 34.8128 2.23093 35.4809C1.56283 36.149 1.1875 37.0551 1.1875 38V57C1.1875 57.9448 1.56283 58.8509 2.23093 59.519C2.89903 60.1871 3.80517 60.5625 4.75 60.5625H26.125C27.0698 60.5625 27.976 60.1871 28.6441 59.519C29.3122 58.8509 29.6875 57.9448 29.6875 57V38C29.6875 37.0551 29.3122 36.149 28.6441 35.4809C27.976 34.8128 27.0698 34.4375 26.125 34.4375ZM9.5 11.7562C12.2989 12.2858 16.4362 10.6934 18.9287 9.23872C19.7901 8.7374 20.6083 8.16544 21.375 7.52872V24.9375H9.5V11.7562ZM13.1421 5.86147C15.1299 4.70247 19.8324 2.87253 21.3489 3.75247L21.375 3.72872C21.4094 4.05053 20.5806 5.52303 17.7329 7.18553C14.0719 9.32184 10.4821 9.85622 9.5 9.31709C9.46556 8.99528 10.2944 7.52278 13.1421 5.86028V5.86147ZM7.125 28.5C7.125 28.185 7.25011 27.883 7.47281 27.6603C7.69551 27.4376 7.99756 27.3125 8.3125 27.3125H22.5625C22.8774 27.3125 23.1795 27.4376 23.4022 27.6603C23.6249 27.883 23.75 28.185 23.75 28.5V34.4375H7.125V28.5ZM27.3125 57C27.3125 57.3149 27.1874 57.617 26.9647 57.8397C26.742 58.0624 26.4399 58.1875 26.125 58.1875H4.75C4.43506 58.1875 4.13301 58.0624 3.91031 57.8397C3.68761 57.617 3.5625 57.3149 3.5625 57V38C3.5625 37.685 3.68761 37.383 3.91031 37.1603C4.13301 36.9376 4.43506 36.8125 4.75 36.8125H26.125C26.4399 36.8125 26.742 36.9376 26.9647 37.1603C27.1874 37.383 27.3125 37.685 27.3125 38V57Z" fill="#151A6A"/>
<path d="M7.125 39.1875C6.81006 39.1875 6.50801 39.3126 6.28531 39.5353C6.06261 39.758 5.9375 40.0601 5.9375 40.375V54.625C5.9375 54.9399 6.06261 55.242 6.28531 55.4647C6.50801 55.6874 6.81006 55.8125 7.125 55.8125C7.43994 55.8125 7.74199 55.6874 7.96469 55.4647C8.18739 55.242 8.3125 54.9399 8.3125 54.625V40.375C8.3125 40.0601 8.18739 39.758 7.96469 39.5353C7.74199 39.3126 7.43994 39.1875 7.125 39.1875Z" fill="#151A6A"/>
<path d="M57 20.1875H35.625C34.6802 20.1875 33.774 20.5628 33.1059 21.2309C32.4378 21.899 32.0625 22.8052 32.0625 23.75V57C32.0625 57.9448 32.4378 58.851 33.1059 59.5191C33.774 60.1872 34.6802 60.5625 35.625 60.5625H57C57.9448 60.5625 58.851 60.1872 59.5191 59.5191C60.1872 58.851 60.5625 57.9448 60.5625 57V23.75C60.5625 22.8052 60.1872 21.899 59.5191 21.2309C58.851 20.5628 57.9448 20.1875 57 20.1875ZM35.625 22.5625H57C57.3149 22.5625 57.617 22.6876 57.8397 22.9103C58.0624 23.133 58.1875 23.4351 58.1875 23.75V29.6875H34.4375V23.75C34.4375 23.4351 34.5626 23.133 34.7853 22.9103C35.008 22.6876 35.3101 22.5625 35.625 22.5625ZM58.1875 57C58.1875 57.3149 58.0624 57.617 57.8397 57.8397C57.617 58.0624 57.3149 58.1875 57 58.1875H35.625C35.3101 58.1875 35.008 58.0624 34.7853 57.8397C34.5626 57.617 34.4375 57.3149 34.4375 57V32.0625H58.1875V57Z" fill="#151A6A"/>
</svg>
