<svg width="76" height="76" viewBox="0 0 76 76" fill="none" xmlns="http://www.w3.org/2000/svg">
<path d="M21.6256 40.4356C19.885 40.7018 18.2996 41.5889 17.1621 42.9331C16.0247 44.2772 15.4121 45.9876 15.4375 47.7482V70.0625C15.4375 71.0073 15.8129 71.9135 16.481 72.5816C17.1491 73.2497 18.0552 73.625 19 73.625H29.6875V47.5C29.6866 46.4854 29.4691 45.4828 29.0498 44.5589C28.6305 43.6351 28.0188 42.8114 27.2558 42.1427C26.4927 41.4741 25.5958 40.9759 24.6249 40.6816C23.654 40.3872 22.6315 40.3033 21.6256 40.4356Z" fill="#C4A2FC"/>
<path d="M66.7506 40.4356C65.01 40.7018 63.4246 41.5889 62.2871 42.9331C61.1497 44.2772 60.5371 45.9876 60.5625 47.7482V73.625H71.25C72.1949 73.625 73.101 73.2497 73.7691 72.5816C74.4372 71.9135 74.8125 71.0073 74.8125 70.0625V47.5C74.8116 46.4854 74.5941 45.4828 74.1748 44.5589C73.7555 43.6351 73.1438 42.8114 72.3808 42.1427C71.6178 41.4741 70.7208 40.9759 69.7499 40.6816C68.779 40.3872 67.7565 40.3033 66.7506 40.4356Z" fill="#C4A2FC"/>
<path d="M67.6875 38C68.0847 38.0026 68.4813 38.03 68.875 38.082V28.5C68.8186 26.2443 67.8705 24.1028 66.2383 22.5448C64.6062 20.9867 62.423 20.1391 60.1671 20.1875H30.0829C27.827 20.1391 25.6438 20.9867 24.0116 22.5448C22.3795 24.1028 21.4314 26.2443 21.375 28.5V38.082C22.7132 37.9044 24.0739 38.0158 25.3654 38.4085C26.6569 38.8013 27.8493 39.4663 28.862 40.3588C29.8748 41.2513 30.6845 42.3505 31.2366 43.5824C31.7887 44.8142 32.0703 46.1501 32.0625 47.5V49.3395C40.7393 48.2887 49.5112 48.2907 58.1875 49.3454V47.5C58.1903 44.9813 59.1921 42.5666 60.9731 40.7856C62.7541 39.0046 65.1688 38.0028 67.6875 38Z" fill="#C4A2FC"/>
<path d="M32.0625 51.737V57H58.1875V51.743C49.5128 50.6634 40.7377 50.6614 32.0625 51.737Z" fill="#C4A2FC"/>
<path d="M32.0625 59.375H58.1875V73.625H32.0625V59.375Z" fill="#C4A2FC"/>
<path d="M57 14.25H55.8125V8.3125C55.8106 6.73836 55.1845 5.22922 54.0714 4.11614C52.9583 3.00305 51.4491 2.37689 49.875 2.375H11.875C10.3009 2.37689 8.79173 3.00305 7.67864 4.11614C6.56555 5.22922 5.93939 6.73836 5.9375 8.3125V14.25H4.75C3.80517 14.25 2.89903 14.6253 2.23093 15.2934C1.56283 15.9615 1.1875 16.8677 1.1875 17.8125V36.8125C1.19054 37.5467 1.42035 38.262 1.84548 38.8606C2.27061 39.4592 2.8703 39.9118 3.5625 40.1565V41.5625C3.5625 42.5073 3.93783 43.4135 4.60593 44.0816C5.27403 44.7497 6.18017 45.125 7.125 45.125C8.06983 45.125 8.97597 44.7497 9.64407 44.0816C10.3122 43.4135 10.6875 42.5073 10.6875 41.5625V40.375H51.0625V41.5625C51.0625 42.5073 51.4378 43.4135 52.1059 44.0816C52.774 44.7497 53.6802 45.125 54.625 45.125C55.5698 45.125 56.476 44.7497 57.1441 44.0816C57.8122 43.4135 58.1875 42.5073 58.1875 41.5625V40.1565C58.8797 39.9118 59.4794 39.4592 59.9045 38.8606C60.3297 38.262 60.5595 37.5467 60.5625 36.8125V17.8125C60.5625 16.8677 60.1872 15.9615 59.5191 15.2934C58.851 14.6253 57.9448 14.25 57 14.25ZM8.3125 8.3125C8.3125 7.36767 8.68783 6.46153 9.35593 5.79343C10.024 5.12533 10.9302 4.75 11.875 4.75H49.875C50.8198 4.75 51.726 5.12533 52.3941 5.79343C53.0622 6.46153 53.4375 7.36767 53.4375 8.3125V14.25H52.25C51.3052 14.25 50.399 14.6253 49.7309 15.2934C49.0628 15.9615 48.6875 16.8677 48.6875 17.8125V23.7809C47.6658 22.995 46.414 22.5669 45.125 22.5625H35.625C34.6998 22.5651 33.7881 22.7846 32.9632 23.2035C32.1382 23.6224 31.423 24.2289 30.875 24.9743C30.327 24.2289 29.6118 23.6224 28.7868 23.2035C27.9619 22.7846 27.0502 22.5651 26.125 22.5625H16.625C15.336 22.5669 14.0842 22.995 13.0625 23.7809V17.8125C13.0625 16.8677 12.6872 15.9615 12.0191 15.2934C11.351 14.6253 10.4448 14.25 9.5 14.25H8.3125V8.3125ZM13.0625 28.5C13.0625 27.5552 13.4378 26.649 14.1059 25.9809C14.774 25.3128 15.6802 24.9375 16.625 24.9375H26.125C27.0698 24.9375 27.976 25.3128 28.6441 25.9809C29.3122 26.649 29.6875 27.5552 29.6875 28.5H13.0625ZM48.6875 28.5H32.0625C32.0625 27.5552 32.4378 26.649 33.1059 25.9809C33.774 25.3128 34.6802 24.9375 35.625 24.9375H45.125C46.0698 24.9375 46.976 25.3128 47.6441 25.9809C48.3122 26.649 48.6875 27.5552 48.6875 28.5ZM3.5625 17.8125C3.5625 17.4976 3.68761 17.1955 3.91031 16.9728C4.13301 16.7501 4.43506 16.625 4.75 16.625H9.5C9.81494 16.625 10.117 16.7501 10.3397 16.9728C10.5624 17.1955 10.6875 17.4976 10.6875 17.8125V38H4.75C4.43506 38 4.13301 37.8749 3.91031 37.6522C3.68761 37.4295 3.5625 37.1274 3.5625 36.8125V17.8125ZM8.3125 41.5625C8.3125 41.8774 8.18739 42.1795 7.96469 42.4022C7.74199 42.6249 7.43994 42.75 7.125 42.75C6.81006 42.75 6.50801 42.6249 6.28531 42.4022C6.06261 42.1795 5.9375 41.8774 5.9375 41.5625V40.375H8.3125V41.5625ZM13.0625 30.875H48.6875V38H13.0625V30.875ZM55.8125 41.5625C55.8125 41.8774 55.6874 42.1795 55.4647 42.4022C55.242 42.6249 54.9399 42.75 54.625 42.75C54.3101 42.75 54.008 42.6249 53.7853 42.4022C53.5626 42.1795 53.4375 41.8774 53.4375 41.5625V40.375H55.8125V41.5625ZM58.1875 36.8125C58.1875 37.1274 58.0624 37.4295 57.8397 37.6522C57.617 37.8749 57.3149 38 57 38H51.0625V17.8125C51.0625 17.4976 51.1876 17.1955 51.4103 16.9728C51.633 16.7501 51.9351 16.625 52.25 16.625H57C57.3149 16.625 57.617 16.7501 57.8397 16.9728C58.0624 17.1955 58.1875 17.4976 58.1875 17.8125V36.8125Z" fill="#151A6A"/>
</svg>
